<svg xmlns="http://www.w3.org/2000/svg" width="22" height="22" viewBox="0 0 22 22">
  <path id="Icon_material-copyright" data-name="Icon material-copyright" d="M11.888,12.746a2.813,2.813,0,0,1,.33-.957,1.924,1.924,0,0,1,.649-.682,1.952,1.952,0,0,1,1-.253,1.994,1.994,0,0,1,.693.143,1.773,1.773,0,0,1,.572.4,2.118,2.118,0,0,1,.374.583,1.926,1.926,0,0,1,.154.7H17.63a3.938,3.938,0,0,0-.308-1.419,3.3,3.3,0,0,0-.77-1.111,3.593,3.593,0,0,0-1.188-.726,4.249,4.249,0,0,0-1.529-.253,4.3,4.3,0,0,0-1.87.374,3.783,3.783,0,0,0-1.32,1.012,4.135,4.135,0,0,0-.781,1.5,6.442,6.442,0,0,0-.264,1.8v.3a6.44,6.44,0,0,0,.253,1.8,4,4,0,0,0,.781,1.485,3.755,3.755,0,0,0,1.32,1,4.464,4.464,0,0,0,1.87.374,4.2,4.2,0,0,0,1.452-.253,3.752,3.752,0,0,0,1.188-.693,3.358,3.358,0,0,0,.814-1.034,2.961,2.961,0,0,0,.33-1.265H15.639a1.566,1.566,0,0,1-.165.638,1.619,1.619,0,0,1-.4.506,1.733,1.733,0,0,1-.572.33,2.184,2.184,0,0,1-.66.11,1.868,1.868,0,0,1-.979-.253,1.924,1.924,0,0,1-.649-.682,2.874,2.874,0,0,1-.33-.968,7.414,7.414,0,0,1-.088-1.1v-.3a7.329,7.329,0,0,1,.088-1.111ZM14,3A11,11,0,1,0,25,14,11,11,0,0,0,14,3Zm0,19.8A8.8,8.8,0,1,1,22.8,14,8.812,8.812,0,0,1,14,22.8Z" transform="translate(-3 -3)"/>
</svg>
